HIERARCHY
ROOT mixamorig:Hips
{
	OFFSET -0.000008 104.274872 1.554316
	CHANNELS 6 Xposition Yposition Zposition Xrotation Yrotation Zrotation
	JOINT mixamorig:Spine
	{
		OFFSET -0.000005 10.181595 0.131519
		CHANNELS 6 Xposition Yposition Zposition Xrotation Yrotation Zrotation
		JOINT mixamorig:Spine1
		{
			OFFSET -0.000000 9.893959 -1.470707
			CHANNELS 6 Xposition Yposition Zposition Xrotation Yrotation Zrotation
			JOINT mixamorig:Spine2
			{
				OFFSET -0.000000 9.220757 -1.370641
				CHANNELS 6 Xposition Yposition Zposition Xrotation Yrotation Zrotation
				JOINT mixamorig:Neck
				{
					OFFSET 0.000001 16.740417 -2.049036
					CHANNELS 6 Xposition Yposition Zposition Xrotation Yrotation Zrotation
					JOINT mixamorig:Head
					{
						OFFSET 0.000000 9.617874 1.685006
						CHANNELS 6 Xposition Yposition Zposition Xrotation Yrotation Zrotation
						JOINT mixamorig:HeadTop_End
						{
							OFFSET 0.000002 22.037354 7.501101
							CHANNELS 6 Xposition Yposition Zposition Xrotation Yrotation Zrotation
							End Site
							{
								OFFSET 0.000168 2310.654297 -282.823242
							}
						}
					}
				}
				JOINT mixamorig:RightShoulder
				{
					OFFSET -4.569970 11.014908 -2.160885
					CHANNELS 6 Xposition Yposition Zposition Xrotation Yrotation Zrotation
					JOINT mixamorig:RightArm
					{
						OFFSET -10.592851 -0.524811 -2.232101
						CHANNELS 6 Xposition Yposition Zposition Xrotation Yrotation Zrotation
						JOINT mixamorig:RightForeArm
						{
							OFFSET -27.841511 0.000031 -0.000004
							CHANNELS 6 Xposition Yposition Zposition Xrotation Yrotation Zrotation
							JOINT mixamorig:RightHand
							{
								OFFSET -28.328831 -0.000015 0.000015
								CHANNELS 6 Xposition Yposition Zposition Xrotation Yrotation Zrotation
								JOINT mixamorig:RightHandThumb1
								{
									OFFSET -2.464806 -1.573990 2.681852
									CHANNELS 6 Xposition Yposition Zposition Xrotation Yrotation Zrotation
									JOINT mixamorig:RightHandThumb2
									{
										OFFSET -3.215179 -1.872803 1.924282
										CHANNELS 6 Xposition Yposition Zposition Xrotation Yrotation Zrotation
										JOINT mixamorig:RightHandThumb3
										{
											OFFSET -2.654831 -1.527969 1.512609
											CHANNELS 6 Xposition Yposition Zposition Xrotation Yrotation Zrotation
											JOINT mixamorig:RightHandThumb4
											{
												OFFSET -2.018814 -1.152008 1.108052
												CHANNELS 6 Xposition Yposition Zposition Xrotation Yrotation Zrotation
												End Site
												{
													OFFSET -188.809540 -114.533607 132.431396
												}
											}
										}
									}
								}
								JOINT mixamorig:RightHandIndex1
								{
									OFFSET -9.108284 -0.517868 2.259835
									CHANNELS 6 Xposition Yposition Zposition Xrotation Yrotation Zrotation
									JOINT mixamorig:RightHandIndex2
									{
										OFFSET -3.699989 0.000000 0.001215
										CHANNELS 6 Xposition Yposition Zposition Xrotation Yrotation Zrotation
										JOINT mixamorig:RightHandIndex3
										{
											OFFSET -2.850006 0.000031 -0.000522
											CHANNELS 6 Xposition Yposition Zposition Xrotation Yrotation Zrotation
											JOINT mixamorig:RightHandIndex4
											{
												OFFSET -2.772186 -0.000015 -0.000020
												CHANNELS 6 Xposition Yposition Zposition Xrotation Yrotation Zrotation
												End Site
												{
													OFFSET -277.218445 0.000000 -0.050231
												}
											}
										}
									}
								}
								JOINT mixamorig:RightHandMiddle1
								{
									OFFSET -9.532516 -0.000031 -0.000023
									CHANNELS 6 Xposition Yposition Zposition Xrotation Yrotation Zrotation
									JOINT mixamorig:RightHandMiddle2
									{
										OFFSET -3.700005 -0.000015 0.003713
										CHANNELS 6 Xposition Yposition Zposition Xrotation Yrotation Zrotation
										JOINT mixamorig:RightHandMiddle3
										{
											OFFSET -2.949974 0.000015 -0.002054
											CHANNELS 6 Xposition Yposition Zposition Xrotation Yrotation Zrotation
											JOINT mixamorig:RightHandMiddle4
											{
												OFFSET -2.946640 0.000000 -0.000156
												CHANNELS 6 Xposition Yposition Zposition Xrotation Yrotation Zrotation
												End Site
												{
													OFFSET -294.664337 0.000000 -0.113670
												}
											}
										}
									}
								}
								JOINT mixamorig:RightHandRing1
								{
									OFFSET -9.103600 -0.043076 -1.865134
									CHANNELS 6 Xposition Yposition Zposition Xrotation Yrotation Zrotation
									JOINT mixamorig:RightHandRing2
									{
										OFFSET -3.379288 0.000000 -0.001055
										CHANNELS 6 Xposition Yposition Zposition Xrotation Yrotation Zrotation
										JOINT mixamorig:RightHandRing3
										{
											OFFSET -2.889687 -0.000015 0.000379
											CHANNELS 6 Xposition Yposition Zposition Xrotation Yrotation Zrotation
											JOINT mixamorig:RightHandRing4
											{
												OFFSET -2.638809 -0.000015 0.000941
												CHANNELS 6 Xposition Yposition Zposition Xrotation Yrotation Zrotation
												End Site
												{
													OFFSET -263.880371 0.000000 0.516020
												}
											}
										}
									}
								}
								JOINT mixamorig:RightHandPinky1
								{
									OFFSET -8.076683 -0.486710 -3.806280
									CHANNELS 6 Xposition Yposition Zposition Xrotation Yrotation Zrotation
									JOINT mixamorig:RightHandPinky2
									{
										OFFSET -3.600014 -0.000015 -0.003747
										CHANNELS 6 Xposition Yposition Zposition Xrotation Yrotation Zrotation
										JOINT mixamorig:RightHandPinky3
										{
											OFFSET -2.099983 0.000000 -0.005739
											CHANNELS 6 Xposition Yposition Zposition Xrotation Yrotation Zrotation
											JOINT mixamorig:RightHandPinky4
											{
												OFFSET -2.115768 -0.000031 -0.003680
												CHANNELS 6 Xposition Yposition Zposition Xrotation Yrotation Zrotation
												End Site
												{
													OFFSET -211.577087 0.000000 -0.350686
												}
											}
										}
									}
								}
							}
						}
					}
				}
				JOINT mixamorig:LeftShoulder
				{
					OFFSET 4.570447 11.014725 -2.160855
					CHANNELS 6 Xposition Yposition Zposition Xrotation Yrotation Zrotation
					JOINT mixamorig:LeftArm
					{
						OFFSET 10.592371 -0.524597 -2.232119
						CHANNELS 6 Xposition Yposition Zposition Xrotation Yrotation Zrotation
						JOINT mixamorig:LeftForeArm
						{
							OFFSET 27.841532 -0.000031 0.000026
							CHANNELS 6 Xposition Yposition Zposition Xrotation Yrotation Zrotation
							JOINT mixamorig:LeftHand
							{
								OFFSET 28.328846 -0.000061 0.000022
								CHANNELS 6 Xposition Yposition Zposition Xrotation Yrotation Zrotation
								JOINT mixamorig:LeftHandThumb1
								{
									OFFSET 2.466141 -1.576172 2.681732
									CHANNELS 6 Xposition Yposition Zposition Xrotation Yrotation Zrotation
									JOINT mixamorig:LeftHandThumb2
									{
										OFFSET 3.217812 -1.872070 1.916482
										CHANNELS 6 Xposition Yposition Zposition Xrotation Yrotation Zrotation
										JOINT mixamorig:LeftHandThumb3
										{
											OFFSET 2.656029 -1.528778 1.514513
											CHANNELS 6 Xposition Yposition Zposition Xrotation Yrotation Zrotation
											JOINT mixamorig:LeftHandThumb4
											{
												OFFSET 2.020889 -1.154053 1.115139
												CHANNELS 6 Xposition Yposition Zposition Xrotation Yrotation Zrotation
												End Site
												{
													OFFSET 190.885437 -115.081749 130.048782
												}
											}
										}
									}
								}
								JOINT mixamorig:LeftHandIndex1
								{
									OFFSET 9.109314 -0.518021 2.259871
									CHANNELS 6 Xposition Yposition Zposition Xrotation Yrotation Zrotation
									JOINT mixamorig:LeftHandIndex2
									{
										OFFSET 3.699989 0.000000 -0.000322
										CHANNELS 6 Xposition Yposition Zposition Xrotation Yrotation Zrotation
										JOINT mixamorig:LeftHandIndex3
										{
											OFFSET 2.850006 0.000000 0.000352
											CHANNELS 6 Xposition Yposition Zposition Xrotation Yrotation Zrotation
											JOINT mixamorig:LeftHandIndex4
											{
												OFFSET 2.774864 -0.000031 -0.000027
												CHANNELS 6 Xposition Yposition Zposition Xrotation Yrotation Zrotation
												End Site
												{
													OFFSET 277.486267 0.000000 -0.009857
												}
											}
										}
									}
								}
								JOINT mixamorig:LeftHandMiddle1
								{
									OFFSET 9.533394 0.000061 0.000044
									CHANNELS 6 Xposition Yposition Zposition Xrotation Yrotation Zrotation
									JOINT mixamorig:LeftHandMiddle2
									{
										OFFSET 3.699989 -0.000015 -0.000231
										CHANNELS 6 Xposition Yposition Zposition Xrotation Yrotation Zrotation
										JOINT mixamorig:LeftHandMiddle3
										{
											OFFSET 2.949997 -0.000015 -0.000059
											CHANNELS 6 Xposition Yposition Zposition Xrotation Yrotation Zrotation
											JOINT mixamorig:LeftHandMiddle4
											{
												OFFSET 2.952896 0.000031 0.000063
												CHANNELS 6 Xposition Yposition Zposition Xrotation Yrotation Zrotation
												End Site
												{
													OFFSET 295.289337 0.000000 0.022810
												}
											}
										}
									}
								}
								JOINT mixamorig:LeftHandRing1
								{
									OFFSET 9.104523 -0.042999 -1.865074
									CHANNELS 6 Xposition Yposition Zposition Xrotation Yrotation Zrotation
									JOINT mixamorig:LeftHandRing2
									{
										OFFSET 3.150009 -0.000031 0.000043
										CHANNELS 6 Xposition Yposition Zposition Xrotation Yrotation Zrotation
										JOINT mixamorig:LeftHandRing3
										{
											OFFSET 2.949982 -0.000015 0.000040
											CHANNELS 6 Xposition Yposition Zposition Xrotation Yrotation Zrotation
											JOINT mixamorig:LeftHandRing4
											{
												OFFSET 2.644348 0.000000 0.000057
												CHANNELS 6 Xposition Yposition Zposition Xrotation Yrotation Zrotation
												End Site
												{
													OFFSET 264.434631 0.000000 0.012105
												}
											}
										}
									}
								}
								JOINT mixamorig:LeftHandPinky1
								{
									OFFSET 8.077789 -0.486847 -3.806259
									CHANNELS 6 Xposition Yposition Zposition Xrotation Yrotation Zrotation
									JOINT mixamorig:LeftHandPinky2
									{
										OFFSET 3.599953 0.000031 0.014727
										CHANNELS 6 Xposition Yposition Zposition Xrotation Yrotation Zrotation
										JOINT mixamorig:LeftHandPinky3
										{
											OFFSET 2.100021 0.000015 0.007705
											CHANNELS 6 Xposition Yposition Zposition Xrotation Yrotation Zrotation
											JOINT mixamorig:LeftHandPinky4
											{
												OFFSET 2.125504 0.000031 0.007517
												CHANNELS 6 Xposition Yposition Zposition Xrotation Yrotation Zrotation
												End Site
												{
													OFFSET 212.550781 0.000000 0.625752
												}
											}
										}
									}
								}
							}
						}
					}
				}
			}
		}
	}
	JOINT mixamorig:RightUpLeg
	{
		OFFSET -8.207787 -6.751648 -1.599560
		CHANNELS 6 Xposition Yposition Zposition Xrotation Yrotation Zrotation
		JOINT mixamorig:RightLeg
		{
			OFFSET -0.000002 -44.370117 0.345942
			CHANNELS 6 Xposition Yposition Zposition Xrotation Yrotation Zrotation
			JOINT mixamorig:RightFoot
			{
				OFFSET 0.000003 -44.423679 -3.043532
				CHANNELS 6 Xposition Yposition Zposition Xrotation Yrotation Zrotation
				JOINT mixamorig:RightToeBase
				{
					OFFSET -0.000002 -8.728671 10.710558
					CHANNELS 6 Xposition Yposition Zposition Xrotation Yrotation Zrotation
					JOINT mixamorig:RightToe_End
					{
						OFFSET -0.000001 -0.000679 9.278119
						CHANNELS 6 Xposition Yposition Zposition Xrotation Yrotation Zrotation
						End Site
						{
							OFFSET 0.000000 -0.067690 927.812134
						}
					}
				}
			}
		}
	}
	JOINT mixamorig:LeftUpLeg
	{
		OFFSET 8.207793 -6.751686 -1.599556
		CHANNELS 6 Xposition Yposition Zposition Xrotation Yrotation Zrotation
		JOINT mixamorig:LeftLeg
		{
			OFFSET -0.000004 -44.370014 0.346954
			CHANNELS 6 Xposition Yposition Zposition Xrotation Yrotation Zrotation
			JOINT mixamorig:LeftFoot
			{
				OFFSET -0.000001 -44.423672 -3.044401
				CHANNELS 6 Xposition Yposition Zposition Xrotation Yrotation Zrotation
				JOINT mixamorig:LeftToeBase
				{
					OFFSET -0.000002 -8.728669 10.710558
					CHANNELS 6 Xposition Yposition Zposition Xrotation Yrotation Zrotation
					JOINT mixamorig:LeftToe_End
					{
						OFFSET -0.000003 -0.000679 9.278133
						CHANNELS 6 Xposition Yposition Zposition Xrotation Yrotation Zrotation
						End Site
						{
							OFFSET 0.000000 -0.068021 927.813477
						}
					}
				}
			}
		}
	}
}
MOTION
Frames: 3
Frame Time: 0.033333
0.000006 104.270477 1.554256 0.000010 0.000003 -0.000113 -0.000005 10.181587 0.131522 0.000001 -0.000003 0.000084 -0.000000 9.893967 -1.470711 0.000001 0.000000 -0.000000 -0.000000 9.220802 -1.370642 0.000000 -0.000000 -0.000000 0.000001 16.740433 -2.049030 0.000000 -0.000000 -0.000000 0.000000 9.617859 1.685014 0.000000 0.000000 0.000000 0.000002 22.037384 7.501101 0.000000 -0.000000 0.000000 -4.569968 11.014880 -2.160881 0.000008 0.000001 -0.000038 -10.592703 -0.524834 -2.231688 110.201195 80.085122 -100.607450 -27.841421 0.000041 0.000623 32.203751 117.526150 -50.905086 -28.328829 0.000021 0.000026 -0.000321 -0.000044 0.000007 -2.464474 -1.574187 2.682075 -86.189010 -63.111692 -41.530538 -3.214825 -1.873025 1.924615 230.293434 -53.913326 -74.655204 -2.654512 -1.528164 1.513072 195.976787 -45.507935 -104.908243 -2.018828 -1.151997 1.108062 -0.000001 -0.000009 0.000002 -9.108145 -0.517672 2.260426 192.490222 9.671890 -284.537703 -3.699761 0.000236 0.001801 188.218676 8.412320 91.355611 -2.849771 0.000223 0.000054 183.647271 4.948076 107.230808 -2.772188 -0.000015 -0.000019 0.000000 0.000000 0.000001 -9.532343 0.000157 0.000565 188.249439 6.964480 -279.547403 -3.699720 0.000006 0.004286 179.879042 4.296665 -174.551782 -2.949999 0.000029 -0.001496 174.786412 3.279167 -64.160768 -2.946614 0.000001 -0.000157 0.000001 0.000000 -0.000001 -9.103328 -0.042887 -1.864545 183.068263 5.385701 -239.066074 -3.379301 0.000057 -0.000505 172.910474 2.178427 325.585118 -2.889738 0.000167 0.000926 169.268098 1.201315 -13.217243 -2.638811 -0.000031 0.000941 0.000000 -0.000002 -0.000002 -8.076630 -0.486534 -3.805709 185.743812 1.531374 -331.865231 -3.599631 0.000020 -0.003203 179.529446 -4.876817 -197.167125 -2.099648 0.000278 -0.005208 175.941534 -5.031750 -258.263769 -2.115765 -0.000057 -0.003685 -0.000004 -0.000000 -0.000008 4.570446 11.014691 -2.160851 -0.000018 0.000010 -0.000021 10.592539 -0.524526 -2.232387 76.457629 -69.297747 57.129256 27.841808 -0.000035 -0.000131 197.169407 -75.000811 202.260056 28.328831 -0.000014 0.000021 0.000020 -0.000088 0.000000 2.466197 -1.576097 2.681893 100.211436 161.466710 -154.112072 3.217867 -1.871973 1.916534 -96.824529 29.655739 38.483294 2.656060 -1.528758 1.514626 -108.715663 31.564893 47.176141 2.020887 -1.154062 1.115126 0.000008 0.000002 0.000004 9.109066 -0.517776 2.259991 -167.152064 -12.603074 -88.888724 3.699709 0.000207 -0.000211 190.160977 -12.793730 256.845439 2.849741 0.000254 0.000454 8.987848 -169.301238 80.016486 2.774894 -0.000047 -0.000027 -0.000002 -0.000001 -0.000003 9.533154 0.000358 0.000158 -166.623052 -9.625926 -71.346694 3.699761 0.000307 -0.000110 -166.484290 -9.412340 -69.574417 2.949776 0.000293 0.000068 -165.075932 -10.184023 -68.460222 2.952871 -0.000029 0.000059 0.000002 0.000001 0.000001 9.104282 -0.042729 -1.864968 190.869295 -8.621854 283.214887 3.149718 0.000379 0.000170 193.707921 -9.765386 289.194089 2.949719 0.000407 0.000190 -163.975876 -10.792098 -67.731605 2.644316 0.000033 0.000050 0.000002 0.000001 0.000001 8.077764 -0.486878 -3.806190 176.473524 -11.641703 151.733281 3.599998 0.000018 0.014781 174.191161 -8.420001 117.317897 2.100111 0.000089 0.007754 -186.749939 -5.912296 -270.272088 2.125499 -0.000015 0.007513 -0.000003 0.000002 -0.000004 -8.207786 -6.751667 -1.599560 -0.077001 -0.000003 0.000080 -0.000002 -44.370110 0.345938 0.153719 -0.000000 -0.000000 0.000000 -44.423679 -3.043532 -0.076700 0.000000 -0.000002 -0.000006 -8.728667 10.710559 -0.000009 -0.000000 -0.000000 -0.000001 -0.000679 9.278123 0.000000 -0.000000 -0.000000 8.207792 -6.751710 -1.599556 -0.074518 -0.000003 0.000081 -0.000002 -44.370014 0.346960 0.148822 0.000002 0.000000 -0.000001 -44.423664 -3.044403 -0.074314 0.000000 -0.000002 -0.000004 -8.728671 10.710558 0.000007 -0.000000 -0.000000 0.000000 -0.000680 9.278137 -0.000000 0.000000 -0.000001 
0.000006 104.270477 1.554256 0.000010 0.000003 -0.000113 -0.000005 10.181587 0.131522 0.000001 -0.000003 0.000084 -0.000000 9.893967 -1.470711 0.000001 0.000000 -0.000000 -0.000000 9.220802 -1.370642 0.000000 -0.000000 -0.000000 0.000001 16.740433 -2.049030 0.000000 -0.000000 -0.000000 0.000000 9.617859 1.685014 0.000000 0.000000 0.000000 0.000002 22.037384 7.501101 0.000000 -0.000000 0.000000 -4.569968 11.014880 -2.160881 0.000008 0.000001 -0.000038 -10.592705 -0.524843 -2.231691 110.871790 80.127695 -101.352870 -27.841423 0.000023 0.000621 33.212891 116.988259 -51.891768 -28.328827 0.000022 0.000021 -0.000320 -0.000047 0.000006 -2.464489 -1.574186 2.682067 -82.197297 -59.821631 -37.519786 -3.214846 -1.873015 1.924619 231.736762 -52.584783 -72.591175 -2.654491 -1.528154 1.513082 192.802976 -43.972102 -107.478347 -2.018830 -1.152004 1.108064 0.000002 -0.000007 0.000000 -9.108160 -0.517655 2.260422 193.178800 10.166644 -284.760094 -3.699764 0.000221 0.001801 187.066505 8.150714 98.210505 -2.849715 0.000128 0.000051 181.264997 4.340138 147.528999 -2.772163 -0.000015 -0.000018 -0.000000 0.000000 -0.000003 -9.532353 0.000178 0.000557 189.451457 7.499593 -283.017494 -3.699729 -0.000061 0.004276 179.157228 4.209543 -154.825990 -2.950030 0.000085 -0.001500 172.448971 3.213462 -45.946611 -2.946625 0.000000 -0.000155 -0.000000 0.000001 0.000000 -9.103364 -0.042838 -1.864557 184.710500 5.757474 -258.481624 -3.379304 0.000125 -0.000510 171.823312 2.124528 330.665577 -2.889739 0.000162 0.000910 165.707684 1.096474 -9.079081 -2.638815 -0.000026 0.000945 0.000002 0.000001 -0.000001 -8.076618 -0.486522 -3.805717 186.878934 1.848309 -331.360071 -3.599656 -0.000029 -0.003212 179.946033 -4.465676 -188.783341 -2.099649 0.000275 -0.005199 176.162272 -4.644424 -259.596475 -2.115767 -0.000050 -0.003682 0.000003 -0.000000 -0.000001 4.570446 11.014691 -2.160851 -0.000018 0.000010 -0.000021 10.592537 -0.524544 -2.232383 76.410419 -69.026670 56.845315 27.841803 -0.000056 -0.000135 196.306645 -75.267517 201.052724 28.328831 -0.000014 0.000017 0.000021 -0.000089 0.000001 2.466186 -1.576079 2.681893 102.051598 165.265743 -155.758967 3.217866 -1.871943 1.916553 -94.420720 25.536249 35.600336 2.656071 -1.528744 1.514624 -110.124226 28.795917 46.673927 2.020882 -1.154059 1.115142 0.000001 -0.000003 0.000006 9.109059 -0.517781 2.259988 -166.977949 -13.799281 -93.353830 3.699713 0.000163 -0.000214 189.524376 -14.543541 246.306703 2.849729 0.000208 0.000453 8.157343 -167.971946 68.181366 2.774885 -0.000047 -0.000033 -0.000000 0.000004 0.000004 9.533134 0.000351 0.000167 -167.185559 -10.979120 -81.110846 3.699714 0.000295 -0.000109 -167.181543 -10.964794 -81.021965 2.949760 0.000293 0.000063 -166.093043 -11.087464 -77.029746 2.952867 -0.000019 0.000066 -0.000000 -0.000002 -0.000000 9.104264 -0.042778 -1.864972 189.628468 -10.559439 264.692589 3.149662 0.000342 0.000169 191.970007 -12.058132 269.576802 2.949664 0.000381 0.000186 -165.549114 -11.615368 -77.478886 2.644332 0.000017 0.000060 0.000001 -0.000000 -0.000003 8.077754 -0.486890 -3.806200 174.899944 -14.405016 145.542725 3.600036 0.000066 0.014780 171.463771 -10.865062 108.611182 2.100104 0.000108 0.007746 -188.238839 -6.452338 -277.649403 2.125516 -0.000003 0.007512 0.000005 -0.000004 -0.000002 -8.207786 -6.751667 -1.599560 -0.077001 -0.000003 0.000080 -0.000002 -44.370110 0.345938 0.153719 -0.000000 -0.000000 0.000000 -44.423679 -3.043532 -0.076700 0.000000 -0.000002 -0.000006 -8.728667 10.710559 -0.000009 -0.000000 -0.000000 -0.000001 -0.000679 9.278123 0.000000 -0.000000 -0.000000 8.207792 -6.751710 -1.599556 -0.074518 -0.000003 0.000081 -0.000002 -44.370014 0.346960 0.148822 0.000002 0.000000 -0.000001 -44.423664 -3.044403 -0.074314 0.000000 -0.000002 -0.000004 -8.728671 10.710558 0.000007 -0.000000 -0.000000 0.000000 -0.000680 9.278137 -0.000000 0.000000 -0.000001 
0.000006 104.270477 1.554256 0.000010 0.000003 -0.000113 -0.000005 10.181587 0.131522 0.000001 -0.000003 0.000084 -0.000000 9.893967 -1.470711 0.000001 0.000000 -0.000000 -0.000000 9.220802 -1.370642 0.000000 -0.000000 -0.000000 0.000001 16.740433 -2.049030 0.000000 -0.000000 -0.000000 0.000000 9.617859 1.685014 0.000000 0.000000 0.000000 0.000002 22.037384 7.501101 0.000000 -0.000000 0.000000 -4.569968 11.014880 -2.160881 0.000008 0.000001 -0.000038 -10.592706 -0.524845 -2.231692 109.525000 79.285854 -99.098702 -27.841410 0.000046 0.000629 33.696182 120.762922 -56.086908 -28.328829 0.000023 0.000029 -0.000323 -0.000045 0.000007 -2.464508 -1.574188 2.682066 -80.962986 -54.538012 -35.239022 -3.214880 -1.873038 1.924581 236.002215 -49.554850 -67.179869 -2.654503 -1.528170 1.513065 194.530741 -42.942311 -104.690291 -2.018838 -1.152013 1.108067 -0.000002 -0.000002 0.000004 -9.108156 -0.517668 2.260421 194.321464 11.037500 -284.835636 -3.699748 0.000222 0.001809 186.874372 9.297914 107.155498 -2.849721 0.000058 0.000054 180.488555 5.615344 170.078459 -2.772152 -0.000014 -0.000018 -0.000000 0.000000 -0.000001 -9.532358 0.000153 0.000549 190.214266 7.839427 -284.869924 -3.699711 -0.000032 0.004286 179.252714 4.719915 -159.798874 -2.950038 0.000051 -0.001503 172.238943 3.835246 -52.434553 -2.946618 -0.000028 -0.000158 0.000001 -0.000000 0.000000 -9.103381 -0.042823 -1.864550 185.254101 5.823807 -264.062927 -3.379289 0.000121 -0.000504 171.900821 1.799258 334.740577 -2.889736 0.000224 0.000914 164.657378 1.172891 -9.017199 -2.638800 -0.000029 0.000943 0.000002 0.000002 0.000005 -8.076639 -0.486517 -3.805719 187.781312 2.086748 -331.258301 -3.599641 0.000029 -0.003199 179.062138 -4.969018 -206.637647 -2.099737 0.000309 -0.005205 173.853258 -4.997274 -281.382374 -2.115777 0.000003 -0.003688 0.000002 -0.000000 -0.000003 4.570446 11.014691 -2.160851 -0.000018 0.000010 -0.000021 10.592544 -0.524537 -2.232392 77.340322 -68.105134 56.815884 27.841812 -0.000058 -0.000117 198.159852 -71.750181 204.921781 28.328835 -0.000013 0.000012 0.000017 -0.000089 -0.000001 2.466198 -1.576096 2.681902 101.843571 163.653614 -155.306781 3.217856 -1.871969 1.916521 -99.529298 31.479553 40.777131 2.656023 -1.528766 1.514603 -112.625496 36.449711 52.257986 2.020872 -1.154055 1.115141 0.000000 0.000006 0.000004 9.109099 -0.517712 2.260006 -163.076026 -11.550498 -68.404345 3.699737 0.000259 -0.000197 193.513971 -12.144516 276.156023 2.849722 0.000266 0.000461 10.216836 -169.404128 87.901386 2.774902 -0.000045 -0.000020 0.000003 0.000001 0.000000 9.533216 0.000373 0.000169 -162.780565 -9.466896 -57.330948 3.699756 0.000292 -0.000108 -165.570315 -10.758188 -73.281414 2.949756 0.000269 0.000066 -166.444388 -10.814997 -77.074573 2.952876 -0.000031 0.000067 0.000003 0.000003 0.000002 9.104338 -0.042688 -1.864953 196.444505 -9.870850 298.271219 3.149720 0.000369 0.000187 195.695247 -12.844327 281.524825 2.949687 0.000404 0.000194 -162.738150 -12.510617 -71.670322 2.644332 0.000029 0.000052 0.000002 0.000001 0.000003 8.077654 -0.486881 -3.806175 179.672771 -15.039014 181.038125 3.599821 -0.000019 0.014806 177.632252 -12.129481 162.414768 2.099858 -0.000053 0.007784 -182.077598 -7.469719 -203.959762 2.125501 -0.000001 0.007515 0.000000 -0.000001 -0.000002 -8.207786 -6.751667 -1.599560 -0.077001 -0.000003 0.000080 -0.000002 -44.370110 0.345938 0.153719 -0.000000 -0.000000 0.000000 -44.423679 -3.043532 -0.076700 0.000000 -0.000002 -0.000006 -8.728667 10.710559 -0.000009 -0.000000 -0.000000 -0.000001 -0.000679 9.278123 0.000000 -0.000000 -0.000000 8.207792 -6.751710 -1.599556 -0.074518 -0.000003 0.000081 -0.000002 -44.370014 0.346960 0.148822 0.000002 0.000000 -0.000001 -44.423664 -3.044403 -0.074314 0.000000 -0.000002 -0.000004 -8.728671 10.710558 0.000007 -0.000000 -0.000000 0.000000 -0.000680 9.278137 -0.000000 0.000000 -0.000001 
